<svg width="66" height="73" viewBox="0 0 66 73" fill="none" xmlns="http://www.w3.org/2000/svg">
<path d="M32.7188 7.31735C37.231 7.31725 41.6944 8.25011 45.8288 10.0573L42.6588 1.96735C42.5394 1.60304 42.5639 1.20682 42.7275 0.860067C42.8911 0.513315 43.1812 0.242356 43.5383 0.102841C43.8954 -0.0366743 44.2924 -0.0341537 44.6477 0.109885C45.003 0.253925 45.2897 0.528548 45.4488 0.877349L49.9188 12.2573C50.0772 12.4614 50.1891 12.6976 50.2465 12.9494C50.304 13.2013 50.3056 13.4626 50.2513 13.7152C50.1969 13.9677 50.088 14.2053 49.9321 14.4112C49.7762 14.6172 49.5771 14.7865 49.3488 14.9073L37.2288 19.6573C37.0432 19.742 36.8423 19.788 36.6383 19.7923C36.4344 19.7967 36.2317 19.7594 36.0426 19.6828C35.8536 19.6062 35.6821 19.4918 35.5388 19.3466C35.3955 19.2014 35.2832 19.0285 35.209 18.8385C35.1348 18.6485 35.1001 18.4453 35.107 18.2415C35.114 18.0376 35.1625 17.8373 35.2495 17.6528C35.3366 17.4682 35.4603 17.3034 35.6132 17.1684C35.7661 17.0333 35.945 16.9309 36.1388 16.8673L45.5088 13.1973C39.2877 10.2441 32.2326 9.54848 25.5545 11.2298C18.8764 12.9112 12.9918 16.8647 8.91084 22.4117C4.82983 27.9587 2.80694 34.7532 3.18937 41.6291C3.57181 48.505 6.33572 55.0333 11.0067 60.0935C15.6777 65.1538 21.9644 68.4303 28.7877 69.3607C35.6111 70.2911 42.5455 68.8174 48.4008 65.1924C54.256 61.5675 58.6669 56.0175 60.8763 49.4951C63.0856 42.9726 62.9557 35.8845 60.5088 29.4473C60.429 29.2616 60.3875 29.0617 60.3869 28.8595C60.3863 28.6574 60.4265 28.4572 60.5052 28.271C60.5839 28.0848 60.6995 27.9164 60.8449 27.776C60.9903 27.6355 61.1626 27.5259 61.3514 27.4538C61.5403 27.3816 61.7417 27.3484 61.9438 27.356C62.1458 27.3637 62.3441 27.4121 62.527 27.4984C62.7098 27.5846 62.8733 27.707 63.0077 27.858C63.142 28.0091 63.2444 28.1857 63.3088 28.3773C65.7982 34.9004 66.1365 42.0485 64.2742 48.7775C62.4119 55.5065 58.4466 61.4636 52.9577 65.7785C47.4687 70.0935 40.7438 72.5401 33.7654 72.761C26.7869 72.9818 19.9208 70.9654 14.1699 67.0061C8.41912 63.0469 4.08507 57.3525 1.80098 50.7548C-0.483109 44.157 -0.597533 37.0018 1.47443 30.3344C3.54638 23.667 7.69614 17.8369 13.3174 13.6958C18.9387 9.55472 25.7369 7.31973 32.7188 7.31735Z" fill="black"/>
</svg>
